<svg width="207" height="44" viewBox="0 0 207 44" fill="none" xmlns="http://www.w3.org/2000/svg">
<path d="M60.4 36.3667C58.1111 36.3667 56.3 35.8 54.9667 34.6667C53.6556 33.5333 53 32.0444 53 30.2C53 28.2667 53.6667 26.7667 55 25.7C56.3333 24.6333 58.2444 24.1 60.7333 24.1H67.0667V23.2667C67.0667 20.6 65.5556 19.2667 62.5333 19.2667C59.9778 19.2667 58.4444 20.1889 57.9333 22.0333H53.4C53.7778 19.9667 54.7556 18.3778 56.3333 17.2667C57.9333 16.1556 60.0111 15.6 62.5667 15.6C65.4333 15.6 67.6222 16.2667 69.1333 17.6C70.6444 18.9111 71.4 20.8222 71.4 23.3333V31.4333H73.5667V36H68.8667V32.8333H67.4667C66.7778 33.9444 65.8444 34.8111 64.6667 35.4333C63.4889 36.0556 62.0667 36.3667 60.4 36.3667ZM61.0667 32.8333C62.2 32.8333 63.2222 32.6111 64.1333 32.1667C65.0444 31.7222 65.7556 31.1333 66.2667 30.4C66.8 29.6444 67.0667 28.8111 67.0667 27.9V27.2667H60.9667C58.5222 27.2667 57.3 28.1778 57.3 30C57.3 30.8889 57.6333 31.5889 58.3 32.1C58.9667 32.5889 59.8889 32.8333 61.0667 32.8333Z" fill="#27292E"/>
<path d="M85.6193 36.3667C82.9526 36.3667 80.8748 35.6444 79.3859 34.2C77.9193 32.7556 77.1859 30.7889 77.1859 28.3V16H81.7193V27.4C81.7193 29.0444 82.1415 30.2889 82.9859 31.1333C83.8304 31.9556 85.0859 32.3667 86.7526 32.3667C88.4637 32.3667 89.7859 31.9222 90.7193 31.0333C91.6748 30.1444 92.1526 28.9 92.1526 27.3V16H96.6859V31.4333H98.9859V36H94.2859V32.8333H92.8859C92.1304 33.9889 91.1637 34.8667 89.9859 35.4667C88.8082 36.0667 87.3526 36.3667 85.6193 36.3667Z" fill="#27292E"/>
<path d="M108.349 36C107.127 36 106.171 35.6889 105.482 35.0667C104.816 34.4444 104.482 33.5 104.482 32.2333V19.5333H100.882V16H104.516V10H108.982V16H113.949V19.5333H109.016V32.4333H114.449V36H108.349Z" fill="#27292E"/>
<path d="M127.077 36.4C124.965 36.4 123.121 35.9778 121.543 35.1333C119.988 34.2667 118.777 33.0556 117.91 31.5C117.043 29.9444 116.61 28.1111 116.61 26C116.61 23.8889 117.032 22.0556 117.877 20.5C118.743 18.9444 119.965 17.7444 121.543 16.9C123.121 16.0333 124.977 15.6 127.11 15.6C129.265 15.6 131.121 16.0222 132.677 16.8667C134.232 17.7111 135.432 18.9111 136.277 20.4667C137.121 22.0222 137.543 23.8667 137.543 26C137.543 28.1111 137.121 29.9556 136.277 31.5333C135.432 33.0889 134.221 34.2889 132.643 35.1333C131.088 35.9778 129.232 36.4 127.077 36.4ZM127.077 32.4667C128.965 32.4667 130.421 31.8889 131.443 30.7333C132.488 29.5778 133.01 28 133.01 26C133.01 23.9556 132.488 22.3667 131.443 21.2333C130.421 20.1 128.965 19.5333 127.077 19.5333C125.21 19.5333 123.754 20.1111 122.71 21.2667C121.665 22.4 121.143 23.9778 121.143 26C121.143 28 121.665 29.5778 122.71 30.7333C123.754 31.8889 125.21 32.4667 127.077 32.4667Z" fill="#27292E"/>
<path d="M149.782 36.4C147.76 36.4 146.037 35.9778 144.615 35.1333C143.193 34.2667 142.115 33.0556 141.382 31.5C140.648 29.9444 140.282 28.1111 140.282 26C140.282 23.8889 140.637 22.0556 141.348 20.5C142.082 18.9222 143.126 17.7111 144.482 16.8667C145.86 16.0222 147.493 15.6 149.382 15.6C150.937 15.6 152.271 15.9 153.382 16.5C154.493 17.0778 155.348 17.9111 155.948 19H156.082V8H160.615V31.4333H162.882V36H158.182V32.8333H156.782C156.093 33.9889 155.16 34.8778 153.982 35.5C152.826 36.1 151.426 36.4 149.782 36.4ZM150.548 32.5C152.237 32.5 153.582 32.0222 154.582 31.0667C155.582 30.1111 156.082 28.8222 156.082 27.2V24.8C156.082 23.1778 155.582 21.8889 154.582 20.9333C153.582 19.9778 152.237 19.5 150.548 19.5C148.704 19.5 147.282 20.0778 146.282 21.2333C145.304 22.3889 144.815 23.9778 144.815 26C144.815 28.0222 145.304 29.6111 146.282 30.7667C147.282 31.9222 148.704 32.5 150.548 32.5Z" fill="#27292E"/>
<path d="M172.861 36.3667C170.572 36.3667 168.761 35.8 167.428 34.6667C166.116 33.5333 165.461 32.0444 165.461 30.2C165.461 28.2667 166.128 26.7667 167.461 25.7C168.794 24.6333 170.705 24.1 173.194 24.1H179.528V23.2667C179.528 20.6 178.016 19.2667 174.994 19.2667C172.439 19.2667 170.905 20.1889 170.394 22.0333H165.861C166.239 19.9667 167.216 18.3778 168.794 17.2667C170.394 16.1556 172.472 15.6 175.028 15.6C177.894 15.6 180.083 16.2667 181.594 17.6C183.105 18.9111 183.861 20.8222 183.861 23.3333V31.4333H186.028V36H181.328V32.8333H179.928C179.239 33.9444 178.305 34.8111 177.128 35.4333C175.95 36.0556 174.528 36.3667 172.861 36.3667ZM173.528 32.8333C174.661 32.8333 175.683 32.6111 176.594 32.1667C177.505 31.7222 178.216 31.1333 178.728 30.4C179.261 29.6444 179.528 28.8111 179.528 27.9V27.2667H173.428C170.983 27.2667 169.761 28.1778 169.761 30C169.761 30.8889 170.094 31.5889 170.761 32.1C171.428 32.5889 172.35 32.8333 173.528 32.8333Z" fill="#27292E"/>
<path d="M198.014 36.4C195.169 36.4 192.925 35.8111 191.28 34.6333C189.636 33.4333 188.736 31.7667 188.58 29.6333H193.014C193.169 30.7222 193.669 31.5333 194.514 32.0667C195.358 32.6 196.58 32.8667 198.18 32.8667C200.936 32.8667 202.314 32.0444 202.314 30.4C202.314 29.7333 202.102 29.2111 201.68 28.8333C201.258 28.4556 200.558 28.1778 199.58 28L195.147 27.1667C191.302 26.4333 189.38 24.6111 189.38 21.7C189.38 19.8333 190.114 18.3556 191.58 17.2667C193.047 16.1556 195.058 15.6 197.614 15.6C200.191 15.6 202.236 16.1667 203.747 17.3C205.28 18.4333 206.136 20.0111 206.314 22.0333H201.947C201.702 21.0111 201.214 20.2556 200.48 19.7667C199.769 19.2778 198.736 19.0333 197.38 19.0333C196.18 19.0333 195.258 19.2333 194.614 19.6333C193.969 20.0333 193.647 20.6111 193.647 21.3667C193.647 21.9222 193.847 22.3778 194.247 22.7333C194.669 23.0667 195.325 23.3222 196.214 23.5L200.68 24.3667C202.702 24.7444 204.18 25.4 205.114 26.3333C206.047 27.2444 206.514 28.4778 206.514 30.0333C206.514 32.0333 205.78 33.6 204.314 34.7333C202.847 35.8444 200.747 36.4 198.014 36.4Z" fill="#27292E"/>
<path d="M22 2V10M22 34V42M7.86 7.86L13.52 13.52M30.48 30.48L36.14 36.14M2 22H10M34 22H42M7.86 36.14L13.52 30.48M30.48 13.52L36.14 7.86" stroke="#FF7F00" stroke-width="4" stroke-linecap="round" stroke-linejoin="round"/>
</svg>
